# File created by Blade
# Date/Time:  Wed Jan 21 14:55:15 2015
# Frame Rate: 120.000 fps
#------------------------------------------------------
:FULLY-SPECIFIED
:DEGREES
215
root 20.914421 34.976892 -19.788048 -171.210478 52.230591 -178.639287
Spine 5.315173 -9.167283 1.901831
Head 26.346391 -25.741290 5.025420
LeftShoulder -8.348382 -23.545234 0.892512
LeftArm -15.952857 3.436906 -65.486283
LeftForeArm -0.662554 -0.000000 10.915357
LeftHand -1.951712 -0.000000 6.183157
LeftHandThumb1 -26.253704 0.000000 33.147579
RightShoulder -12.444354 -15.455415 8.383530
RightArm 8.610455 -2.724074 73.129106
RightForeArm -20.993892 -0.000000 20.414264
RightHand -0.987046 -0.000000 0.950325
RightHandThumb1 -24.326973 -0.000000 -32.862282
LeftUpLeg -2.778195 35.801107 1.631043
LeftLeg 11.381124 -0.000000 -0.000000
LeftFoot -37.576687 47.707419 -29.449983
LeftToeBase 25.250671 -0.000000 -0.000000
RightUpLeg -25.733695 -14.672603 5.459381
RightLeg 11.022409 -0.000000 -0.000000
RightFoot -13.974580 -34.835449 12.310959
RightToeBase 19.968535 -0.000000 -0.000000
216
root 21.019522 34.972285 -19.757538 -170.865853 52.607259 -178.722358
Spine 5.269730 -8.998372 2.016173
Head 26.170147 -25.609050 5.054614
LeftShoulder -8.340622 -23.562481 0.730707
LeftArm -15.898022 3.340226 -65.585649
LeftForeArm -0.259299 0.000000 10.858196
LeftHand -1.969172 -0.000000 5.859957
LeftHandThumb1 -26.253704 0.000000 33.147579
RightShoulder -12.281465 -15.315957 8.347185
RightArm 8.822785 -2.983103 72.916721
RightForeArm -20.838880 0.000000 20.447201
RightHand -0.814765 -0.000000 0.642199
RightHandThumb1 -24.326973 -0.000000 -32.862282
LeftUpLeg -3.235303 35.796453 1.528453
LeftLeg 11.787171 -0.000000 -0.000000
LeftFoot -37.333894 47.739392 -29.513706
LeftToeBase 25.153614 -0.000000 -0.000000
RightUpLeg -26.433959 -14.667542 5.717975
RightLeg 11.641286 -0.000000 -0.000000
RightFoot -14.251248 -34.403394 12.389286
RightToeBase 20.719765 -0.000000 -0.000000
217
root 21.123233 34.967879 -19.728492 -170.576017 52.955511 -178.883405
Spine 5.223308 -8.878567 2.075913
Head 25.999849 -25.460005 5.076784
LeftShoulder -8.388711 -23.645348 0.615640
LeftArm -15.880686 3.278106 -65.712260
LeftForeArm 0.144372 -0.000000 10.773716
LeftHand -1.985932 -0.000000 5.496367
LeftHandThumb1 -26.253704 0.000000 33.147579
RightShoulder -12.155093 -15.184989 8.330511
RightArm 9.098973 -3.273547 72.686518
RightForeArm -20.768127 0.000000 20.425284
RightHand -0.744534 -0.000000 0.614584
RightHandThumb1 -24.326973 -0.000000 -32.862282
LeftUpLeg -3.680712 35.615276 1.394584
LeftLeg 12.214109 -0.000000 -0.000000
LeftFoot -37.112867 47.684096 -29.658133
LeftToeBase 25.034118 -0.000000 -0.000000
RightUpLeg -27.146382 -14.702534 5.946488
RightLeg 12.286240 -0.000000 -0.000000
RightFoot -14.520032 -33.904752 12.315759
RightToeBase 21.172470 -0.000000 -0.000000
218
root 21.225018 34.965075 -19.704721 -170.352775 53.444177 -179.153771
Spine 5.144851 -8.613147 2.020938
Head 25.870412 -25.302062 5.148907
LeftShoulder -8.402015 -23.667564 0.515277
LeftArm -15.885012 3.254327 -65.860096
LeftForeArm 0.325039 -0.000000 10.735383
LeftHand -2.010563 0.000000 5.153921
LeftHandThumb1 -26.253704 0.000000 33.147579
RightShoulder -12.033890 -15.029023 8.346140
RightArm 9.297409 -3.478943 72.477366
RightForeArm -20.746749 0.000000 20.413239
RightHand -0.638159 0.000000 0.579965
RightHandThumb1 -24.326973 -0.000000 -32.862282
LeftUpLeg -4.073292 35.679136 1.186262
LeftLeg 12.552904 -0.000000 -0.000000
LeftFoot -36.696955 47.530669 -29.671967
LeftToeBase 24.906213 -0.000000 -0.000000
RightUpLeg -27.879371 -14.589836 6.084293
RightLeg 12.909030 -0.000000 -0.000000
RightFoot -14.718613 -33.521953 12.108640
RightToeBase 21.836354 -0.000000 -0.000000
